<?xml version="1.0" encoding="UTF-8" standalone="no"?>
<!-- Created with Inkscape (http://www.inkscape.org/) -->

<svg
   width="124mm"
   height="124mm"
   viewBox="0 0 124 124"
   version="1.1"
   id="svg1"
   xml:space="preserve"
   xmlns:inkscape="http://www.inkscape.org/namespaces/inkscape"
   xmlns:sodipodi="http://sodipodi.sourceforge.net/DTD/sodipodi-0.dtd"
   xmlns="http://www.w3.org/2000/svg"
   xmlns:svg="http://www.w3.org/2000/svg"><sodipodi:namedview
     id="namedview1"
     pagecolor="#505050"
     bordercolor="#eeeeee"
     borderopacity="1"
     inkscape:showpageshadow="0"
     inkscape:pageopacity="0"
     inkscape:pagecheckerboard="0"
     inkscape:deskcolor="#505050"
     inkscape:document-units="mm"><inkscape:page
       x="0"
       y="0"
       width="124"
       height="124"
       id="page2"
       margin="0"
       bleed="0" /></sodipodi:namedview><defs
     id="defs1" /><g
     inkscape:label="Layer 1"
     inkscape:groupmode="layer"
     id="layer1"
     transform="translate(-23.539627,-75.627319)"><rect
       style="fill:#191919;fill-opacity:1;stroke:none;stroke-width:0.719;stroke-miterlimit:6"
       id="rect1"
       width="124"
       height="124"
       x="23.539627"
       y="75.627319"
       rx="10.6" /><g
       style="fill:#ffffff;fill-opacity:1;stroke:none;stroke-opacity:1"
       id="g2"
       transform="matrix(0.63311843,0,0,0.63311843,37.205079,89.207725)"><path
         d="m 85.2634,101.955 -2.2138,-1.799 c -3.8416,3.445 -7.6247,6.877 -11.4545,10.256 -1.881,1.659 -3.7877,3.301 -5.7934,4.803 -2.6031,1.95 -4.2426,1.744 -6.551,-0.63 -0.821,-0.844 -1.566,-1.763 -2.5866,-2.922 -0.3465,3.096 -0.5251,5.858 -0.9845,8.571 -0.8966,5.422 -3.28,10.489 -6.885,14.637 -3.7411,4.343 -6.5515,4.618 -10.7928,0.922 -2.7185,-2.368 -5.3524,-4.833 -8.0349,-7.244 -0.2611,-0.146 -0.5402,-0.256 -0.8303,-0.328 -2.0812,1.715 -4.9146,2.666 -5.1719,6.342 -0.1555,2.224 -2.2066,3.4 -4.4677,3.667 -1.2034,0.147 -2.4223,-0.093 -3.4804,-0.684 -1.0582,-0.592 -1.9006,-1.505 -2.4056,-2.607 -1.0049,-2.151 -0.974,-4.256 0.6143,-6.134 0.4017,-0.473 1.1197,-1.083 1.6087,-1.017 4.0411,0.55 5.5625,-2.784 7.9948,-4.916 -1.4951,-1.533 -2.9856,-2.937 -4.3318,-4.468 -2.4357,-2.773 -4.851,-5.568 -7.1449,-8.457 -1.3625,-1.717 -0.6832,-3.57 0.2967,-5.216 3.938,-6.6113 9.8339,-10.7712 17.0648,-12.9778 2.7618,-0.8427 5.7554,-0.9268 8.7949,-1.3783 -0.2106,-0.5079 -0.4567,-1.0002 -0.7364,-1.4735 -2.9647,-4.4736 -2.7803,-5.7488 1.247,-9.4512 4.7375,-4.3548 9.4362,-8.7523 14.1769,-13.1524 -0.8243,-1.9152 -1.7918,-1.7203 -3.0618,-0.6938 -1.5,1.2706 -3.0884,2.4331 -4.7532,3.4787 -2.9476,1.753 -4.7794,1.5404 -7.3634,-0.7456 C 34.6702,65.3776 31.3275,62.4097 28.1023,59.3203 19.6574,51.2316 11.2506,43.1039 2.88182,34.9373 -0.451717,31.6924 -0.486506,30.8937 2.3049,27.2201 3.13561,26.2079 4.01895,25.2399 4.95126,24.3204 11.6879,17.1663 18.4718,10.0588 25.1507,2.85816 c 3.0697,-3.310568 4.5891,-3.88421 8.0447,-0.98779 6.8575,5.74755 13.413,11.85673 20.0584,17.85233 5.676,5.1227 11.266,10.3407 16.9643,15.4385 3.5994,3.2206 3.8482,4.6186 1.1729,8.5691 -0.6708,0.9897 -1.1427,2.1245 -1.8758,3.0592 -0.8369,0.9467 -1.7305,1.8419 -2.6759,2.6804 l 1.973,2.8879 c 1.6014,-1.2949 3.1136,-2.4757 4.5806,-3.7102 5.0918,-4.2866 10.1896,-8.5672 15.2414,-12.9004 2.7232,-2.3365 4.1737,-2.3799 8.1557,0.2061 0.8729,-0.5526 1.8502,-1.1984 2.8531,-1.8023 9.3729,-5.6353 21.4789,-0.9339 23.8109,9.3423 1.24,5.4686 -0.803,10.1135 -4.392,14.1113 -1.327,1.4768 -2.045,2.7225 -1.61,4.8792 0.61,3.0191 -1.56,5.0079 -3.514,6.9894 -4.447,4.5097 -8.823,9.0903 -13.466,13.8887 l 2.001,2.4797 c 1.232,-1.484 2.543,-2.9 3.928,-4.242 3.285,-2.8564 6.186,-2.7658 9.224,0.2626 10.448,10.4187 21.018,20.7208 31.227,31.3728 6.807,7.101 6.258,8.678 -0.238,15.687 -7.814,8.29 -16.928,15.25 -26.983,20.604 -5.742,3.115 -8.264,2.543 -12.559,-2.272 -9.0199,-10.107 -18.12,-20.149 -27.1814,-30.219 -0.5953,-0.643 -1.149,-1.322 -1.6579,-2.035 -2.0478,-2.958 -1.973,-3.862 0.5815,-6.51 2.0406,-2.114 4.1271,-4.185 6.4492,-6.535 z m -21.0645,7.042 C 80.7438,94.5308 94.9582,78.4262 110.113,63.209 L 91.6771,42.199 C 74.7003,55.7458 58.4323,69.993 42.9847,85.9112 Z m -20.6563,22.495 c 4.1769,-5.597 7.8137,-15.03 6.3783,-21.15 -1.549,-6.601 -5.949,-10.3702 -11.3126,-10.5257 -6.1611,-0.1779 -14.2091,2.3577 -18.3775,6.5507 7.2762,8.179 16.0626,16.974 23.3118,25.125 z M 96.3778,99.9876 c -4.3121,3.7254 -8.4871,7.3304 -12.897,11.1404 l 10.336,9.188 11.6002,-9.901 z m 24.3592,-3.1031 -8.992,-10.5598 -11.101,9.7873 10.112,9.811 z M 16.6905,20.3942 5.85372,30.1355 16.5842,39.3787 26.0105,29.2626 Z M 30.5596,7.58576 20.2315,17.2602 l 9.6711,8.065 8.7057,-8.9839 z M 143.816,121.506 l -7.351,-6.904 -12.211,8.906 7.589,9.098 z m -19.276,-20.281 -10.727,9.012 7.557,9.218 c 3.807,-3.203 7.435,-6.257 11.289,-9.501 z m -82.761,-56.0797 -8.4569,8.965 9.7794,9.0312 7.2073,-8.3388 z m 74.069,78.7687 -7.178,-9.468 c -3.966,3.282 -7.556,6.248 -11.1705,9.239 l 8.2425,8.11 z m 0.439,20.697 9.994,-7.281 -7.78,-9.35 c -3.598,2.523 -6.917,4.849 -10.239,7.178 z M 54.8887,33.2164 l -8.3263,8.0657 9.4434,8.6027 7.4409,-8.6637 z m -33.6491,10.1733 6.5036,5.7888 9.4067,-8.1339 C 34.8173,38.5918 32.5903,36.2487 30.3384,33.88 Z m 22.5977,-21.9834 -9.1848,8.5474 7.1771,6.673 8.6446,-8.086 z M 111.938,52.965 c 4.069,-5.2711 4.318,-9.2111 1.034,-12.2348 -3.284,-3.0238 -8.572,-2.9168 -12.235,0.4981 z m -15.6029,35.0536 -8.0119,7.2677 1.8594,2.5393 8.117,-8.5396 z M 62.0041,54.5014 c -5.6222,5.0604 -5.6222,5.0604 -3.7471,7.1154 l 6.1572,-5.4877 z"
         fill="#000000"
         id="path1"
         style="fill:#ffffff;fill-opacity:1;stroke:none;stroke-opacity:1" /></g></g></svg>
